<?xml version="1.0" encoding="utf-8"?>
<!-- Generator: Adobe Illustrator 15.1.0, SVG Export Plug-In . SVG Version: 6.00 Build 0)  -->
<!DOCTYPE svg PUBLIC "-//W3C//DTD SVG 1.1//EN" "http://www.w3.org/Graphics/SVG/1.1/DTD/svg11.dtd">
<svg version="1.1" id="Ebene_1" xmlns="http://www.w3.org/2000/svg" xmlns:xlink="http://www.w3.org/1999/xlink" x="0px" y="0px"
	 width="1000px" height="188.702px" viewBox="0 205.649 1000 188.702" enable-background="new 0 205.649 1000 188.702"
	 xml:space="preserve">
<title>Logo der tollwerkstatt</title>
<path fill="#00285A" d="M716.02,361.344h-26.915l-18.063-29.393l-9.792,11.104v18.289h-23.355V244.439h23.355v70.456l25.531-31.882
	h27.629l-29.064,32.83L716.02,361.344z M520.963,346.538c-11.592,0-17.646-5.819-19.049-18.284h38.541v-16.343h-38.131
	c1.75-8.743,6.294-12.522,15.144-12.522h22.983v-16.378h-22.379l-2.305,0.089c-23.021,0.946-35.194,14.561-35.194,39.604
	c0,26.264,13.413,40.735,37.766,40.735c10.319,0,20.093-2.094,29.869-6.398L543,341.882c-8.135,3.059-15.541,4.632-22.044,4.632
	L520.963,346.538z M604.752,303.959c1.204-0.104,2.358-0.082,3.471,0.031c2.611,0.266,4.974,1.068,7.044,2.229l7.069-20.554
	c-2.387-1.477-4.742-2.549-7.048-3.265l-0.252-0.066c-8.422-2.505-16.157-0.244-22.086,4.477c-3.103,2.238-6.25,5.23-9.641,9.087
	l-1.086,1.264v-14.141h-23.183v78.324H582.4v-41.27l0.111-0.155c2.407-3.666,4.787-6.636,7.247-8.987
	c5.452-4.521,10.527-6.578,15.042-6.968L604.752,303.959z M445.409,330.923l-18.439-47.912h-16.055l-17.518,48.036l-10.654-48.036
	h-24.146l22.504,78.333h17.427l19.8-48.516l19.637,48.516h17.265l21.653-78.333h-22.406l-9.043,47.912H445.409z M593.844,334.46
	l16.968,26.895h26.928l-25.31-35.323L593.844,334.46z M188.695,299.996c0,52.109-42.238,94.354-94.348,94.354
	C42.243,394.351,0,352.109,0,299.996c0-2.761,0.144-5.496,0.377-8.2l36.533-40.64l-12.677-14.273
	c3.362-3.739,7.026-7.191,10.944-10.35l17.774,25.343l-25.775,36.037l13.659,10.704l42.974-47.461l-31.91-35.412
	c12.766-6.443,27.172-10.096,42.449-10.096C146.458,205.649,188.695,247.892,188.695,299.996z M158.376,279.041H76.121v21.975
	h21.021v14.202c0,31.709,6.294,48.892,39.45,48.892c5.23,0,10.195-0.344,14.76-1.024l-1.374-19.729
	c-1.862,0.282-4.592,0.282-8.267,0.282c-14.543,0-19.703-7.425-19.703-28.413v-14.207h36.392v-21.963L158.376,279.041z
	 M274.644,320.608c0,26.822-15.292,42.832-40.908,42.832c-24.523,0-39.162-15.363-39.162-41.09
	c0-25.837,15.359-41.261,41.083-41.261c24.401,0,38.984,14.761,38.984,39.517L274.644,320.608z M250.77,321.827
	c0-15.359-5.497-23.143-16.338-23.143c-10.492,0-15.811,7.668-15.811,22.796c0,16.051,5.556,24.189,16.511,24.189
	C245.508,345.67,250.77,337.647,250.77,321.827z M325.902,328.884h23.354v-84.445h-23.349v84.445H325.902z M285.964,361.344h23.349
	V244.439h-23.344v116.905H285.964z M743.834,304.001c0-3.799,3.107-5.696,9.153-5.696c4.654,0,10.871,1.552,18.986,4.661
	l5.523-17.781c-8.134-2.934-16.245-4.314-24.18-4.314c-19.504,0-32.979,8.111-32.979,24.168c0,25.554,34.862,22.274,34.862,34.53
	c0,3.796-2.947,5.695-8.977,5.695c-6.228,0-13.829-2.072-22.96-6.043l-5.874,18.129c8.112,3.797,17.598,5.695,28.479,5.695
	c19.504,0,32.979-7.597,32.979-24.341c0-27.105-35.062-23.825-35.062-34.703H743.834z M865.397,283h-37.034v0.021H818.7v-22.188
	h-23.347v22.186h-12.947v16.4h12.947v61.924H818.7v-61.928h44.623c6.388,0,9.494,3.279,9.494,9.667v4.41
	c-12.429,0.519-21.062,1.899-29.175,5.873c-7.771,3.624-12.086,10.357-12.086,20.024c0,16.573,9.841,23.652,29.876,23.652
	c11.569,0,23.493-2.074,35.395-6.39v-44.995c0-8.111-1.552-13.984-5.873-19.681c-4.145-5.695-12.943-8.976-25.555-8.976L865.397,283
	z M872.822,345.1c-2.245,1.042-5.353,1.552-8.98,1.552c-6.044,0-8.976-3.103-8.806-8.621c0.173-7.757,6.044-9.841,17.781-10.018
	v17.109L872.822,345.1z M987.05,283.022v-22.188h-23.346v22.186h-21.72v-22.186h-23.352v22.186h-12.943v16.4h12.943v61.924h23.352
	v-61.928h21.719v61.934h0.129l23.223-10.683v-51.256h12.947v-16.4h-12.949L987.05,283.022z"/>
</svg>
